<?xml version="1.0" standalone="no"?>
<!DOCTYPE svg PUBLIC "-//W3C//DTD SVG 20010904//EN"
 "http://www.w3.org/TR/2001/REC-SVG-20010904/DTD/svg10.dtd">
<svg version="1.0" xmlns="http://www.w3.org/2000/svg"
width="500.000000px" height="300.000000px" viewBox="0 0 1920.000000 1080.000000"
 preserveAspectRatio="xMidYMid meet" fill="#000000">

<g transform="translate(0.000000,1080.000000) scale(0.100000,-0.100000)"
stroke="none">
<path d="M13605 8474 c-16 -2 -82 -8 -145 -14 -227 -21 -417 -51 -510 -81 -48
-15 -101 -22 -197 -25 -73 -2 -189 -13 -258 -24 -68 -11 -141 -20 -160 -20
-74 0 -553 -77 -715 -115 -36 -8 -98 -22 -138 -30 -40 -8 -92 -26 -115 -39
-95 -54 -377 -113 -632 -132 -82 -6 -93 -9 -127 -39 -21 -18 -67 -46 -101 -64
-58 -29 -76 -33 -232 -46 -161 -14 -224 -20 -460 -44 -55 -6 -120 -18 -145
-27 -30 -11 -79 -18 -145 -19 -96 -1 -104 -3 -205 -49 -58 -27 -157 -68 -220
-91 -63 -24 -160 -64 -215 -90 -55 -26 -120 -56 -145 -67 -25 -11 -101 -31
-170 -43 -422 -77 -405 -73 -569 -141 -224 -95 -629 -236 -741 -260 -36 -7
-105 -27 -155 -44 -49 -17 -117 -37 -150 -45 -33 -7 -118 -32 -190 -55 -71
-23 -175 -50 -230 -61 -54 -11 -103 -23 -107 -25 -5 -3 -86 -12 -181 -19 -160
-13 -178 -17 -257 -50 -47 -20 -116 -48 -155 -62 -38 -14 -92 -36 -118 -50
-27 -13 -88 -38 -135 -55 -95 -33 -413 -183 -461 -217 -16 -12 -92 -55 -169
-95 -77 -41 -179 -100 -227 -131 -90 -58 -482 -259 -641 -329 -49 -21 -127
-57 -174 -79 -119 -55 -234 -105 -310 -132 -36 -13 -103 -40 -150 -60 -47 -20
-104 -43 -127 -50 -103 -33 -367 -178 -429 -235 -60 -56 -96 -76 -163 -91 -30
-6 -52 -17 -56 -27 -14 -35 -15 -227 -1 -314 19 -114 44 -165 120 -241 116
-118 181 -155 401 -233 38 -13 88 -33 111 -44 43 -21 189 -51 240 -49 52 2
238 30 289 44 28 8 74 17 104 21 55 6 184 46 205 63 6 5 85 32 175 61 91 28
189 65 218 80 29 16 194 74 367 129 241 77 342 115 432 161 66 33 135 65 154
71 19 7 59 24 87 40 29 15 70 33 90 39 21 7 47 18 58 25 11 6 38 18 60 25 22
7 49 18 60 25 11 6 38 18 60 25 22 7 51 19 65 26 43 23 205 83 271 100 126 32
175 43 219 49 25 4 68 13 95 20 28 8 100 21 160 30 161 24 239 49 314 98 121
80 165 104 406 232 359 190 1281 653 1355 681 79 30 237 64 294 64 24 0 76 11
117 25 152 53 313 87 629 136 179 27 340 54 359 60 18 6 93 42 165 79 151 78
208 91 298 68 36 -9 64 -11 79 -6 13 5 66 20 117 33 51 14 156 45 235 70 78
24 174 54 212 64 39 11 174 56 300 101 239 84 624 212 710 236 27 8 70 14 95
14 25 0 88 7 140 16 190 31 295 36 850 44 440 6 585 11 655 23 177 31 293 31
471 3 89 -14 190 -26 225 -26 35 0 102 -5 149 -10 259 -31 445 -54 610 -75
329 -43 353 -45 490 -38 165 7 215 -4 380 -81 114 -54 209 -81 370 -106 330
-51 497 -89 800 -180 160 -48 212 -62 350 -96 71 -17 137 -40 305 -104 103
-40 117 -43 215 -44 98 -1 109 1 165 29 86 43 177 136 200 205 24 70 24 169 1
240 -16 47 -33 69 -119 152 -102 98 -122 112 -212 143 -87 30 -148 53 -222 84
-40 17 -106 45 -145 62 -40 16 -89 36 -108 43 -57 21 -242 116 -275 141 -42
31 -88 54 -164 80 -36 13 -104 40 -151 60 -47 20 -101 42 -121 50 -70 26 -142
67 -184 106 -45 42 -95 127 -95 164 0 14 -13 26 -47 41 -84 38 -335 112 -418
124 -44 6 -102 17 -130 25 -80 21 -374 64 -440 63 -33 0 -94 4 -135 10 -41 5
-91 11 -110 11 -19 1 -60 5 -90 11 -30 5 -77 9 -103 9 -26 0 -51 3 -56 5 -4 3
-95 13 -202 22 -200 18 -213 19 -339 28 -41 3 -100 9 -130 13 -30 4 -58 6 -62
5 -4 -1 -74 -7 -155 -13 -81 -5 -187 -20 -235 -31 -85 -20 -89 -20 -198 -3
-61 9 -144 28 -183 41 -61 21 -87 24 -191 23 -67 -1 -134 -3 -151 -5z"/>
</g>
</svg>
