<?xml version="1.0" standalone="no"?>
<!DOCTYPE svg PUBLIC "-//W3C//DTD SVG 20010904//EN"
 "http://www.w3.org/TR/2001/REC-SVG-20010904/DTD/svg10.dtd">
<svg version="1.0" xmlns="http://www.w3.org/2000/svg"
 width="100%" height="100%" viewBox="-800 50 1600 950"
fill="#000000"  stroke="transparent">
<g transform="translate(-750.000000, 700.000000) scale(0.29,-0.25)" 
stroke="none">
<path d="M3234 3636 c-23 -7 -79 -31 -125 -53 -46 -22 -124 -59 -173 -82 -49
-23 -87 -44 -83 -47 3 -3 25 6 50 20 51 30 71 34 36 8 -30 -23 -169 -102 -169
-97 0 3 18 17 40 31 58 38 40 43 -20 6 -27 -17 -50 -29 -50 -26 0 16 279 173
365 205 l40 15 -37 1 c-21 1 -36 -2 -34 -5 2 -4 -8 -7 -23 -8 -15 -1 -41 -11
-57 -23 -17 -12 -40 -23 -52 -24 -12 -1 -22 -4 -22 -7 0 -4 -6 -7 -14 -7 -18
0 -89 -45 -240 -152 -115 -81 -306 -258 -405 -376 l-43 -50 28 45 c111 182
398 440 578 520 28 13 35 19 21 20 -13 1 -2 11 35 31 30 16 46 27 35 25 -72
-18 -177 -47 -215 -61 -87 -31 -225 -116 -367 -228 -87 -67 -79 -52 10 21 89
73 163 121 292 189 115 61 119 69 7 17 -42 -19 -85 -37 -95 -39 -11 -3 -57
-25 -103 -50 -46 -25 -84 -43 -84 -41 0 8 133 89 225 139 84 45 88 49 25 32
-54 -15 -208 -89 -265 -128 -112 -75 -263 -207 -331 -287 -37 -44 -69 -80 -72
-80 -2 0 2 8 9 18 13 15 12 16 -3 4 -9 -8 -15 -19 -12 -26 3 -7 -2 -19 -11
-26 -8 -7 -15 -9 -15 -5 0 4 -7 1 -16 -6 -24 -20 -147 -179 -142 -184 2 -2 34
36 72 86 37 50 70 89 72 86 3 -3 -31 -53 -76 -113 -45 -59 -93 -127 -107 -151
-13 -24 -27 -43 -29 -43 -6 0 13 36 44 83 14 20 23 40 20 43 -3 3 -16 -11 -28
-30 -20 -33 -41 -53 -24 -23 47 82 167 250 227 318 84 97 280 279 371 346 32
24 54 43 49 43 -13 0 -188 -106 -211 -127 -10 -10 -60 -54 -111 -98 -160 -138
-254 -263 -375 -497 -77 -147 -128 -293 -97 -274 5 3 34 51 66 106 31 55 59
100 61 100 2 0 -9 -27 -26 -60 -29 -58 -80 -197 -80 -220 0 -6 17 22 39 62 44
84 86 152 77 125 -20 -62 -14 -66 17 -12 64 110 201 325 251 393 61 83 204
225 271 270 44 30 39 23 -40 -55 -102 -100 -275 -309 -355 -428 -53 -79 -99
-174 -125 -262 -17 -56 -12 -51 60 62 32 50 54 81 50 70 -38 -99 -55 -148 -52
-151 1 -2 31 45 66 104 141 238 216 351 287 435 77 90 265 258 325 290 l34 18
-35 -28 c-150 -122 -272 -228 -301 -264 -72 -89 -174 -246 -215 -334 -48 -104
-70 -184 -26 -95 69 138 125 241 128 237 2 -2 -12 -44 -32 -93 -48 -118 -67
-171 -56 -159 14 17 117 187 157 260 41 75 106 165 149 204 14 13 -8 -26 -49
-88 -42 -62 -90 -141 -107 -174 -34 -67 -98 -230 -98 -248 0 -6 52 60 116 147
113 155 160 214 115 144 -39 -60 -109 -220 -88 -200 3 3 31 52 62 110 77 140
182 294 256 371 l60 64 -45 -58 c-115 -145 -206 -304 -251 -438 -14 -40 -24
-74 -22 -76 2 -1 34 51 71 117 38 66 70 120 72 120 3 0 0 -9 -6 -19 -14 -28
-30 -71 -26 -71 2 0 30 41 61 90 31 50 58 90 60 90 2 0 -9 -28 -25 -62 -31
-66 -60 -168 -59 -203 0 -13 5 -9 13 15 23 62 74 154 104 190 l30 35 -34 -70
c-18 -38 -34 -74 -34 -80 0 -14 152 244 154 262 2 9 13 24 27 35 13 11 17 16
9 12 -22 -12 33 49 151 167 57 57 111 104 119 104 8 0 15 5 15 12 0 7 6 18 13
25 11 11 13 10 10 -4 -1 -9 2 -16 7 -15 6 1 9 5 8 9 -9 25 164 123 291 164 39
13 64 23 55 24 -22 0 -146 -38 -182 -57 -16 -8 -31 -13 -33 -10 -2 2 13 12 33
23 21 10 45 25 54 32 9 7 47 26 85 42 71 30 70 38 -2 16z"/>
<path d="M3465 3599 c-27 -11 -59 -22 -70 -24 -11 -1 -24 -3 -28 -4 -5 0 -5
-5 -2 -11 4 -6 -1 -7 -11 -3 -13 5 -10 9 16 23 27 14 29 18 15 23 -23 10 -27
9 -20 -4 5 -7 -6 -8 -32 -5 -23 3 -29 3 -15 -2 20 -6 4 -16 -104 -67 -139 -65
-266 -140 -348 -207 l-51 -42 40 45 c22 24 4 10 -39 -31 -128 -122 -253 -300
-306 -435 -48 -121 -44 -135 11 -40 141 245 272 402 442 529 70 53 37 17 -73
-79 -156 -137 -269 -285 -320 -420 -13 -34 -10 -31 49 48 45 59 60 73 41 36
-23 -43 -61 -153 -48 -139 8 8 39 53 68 100 103 162 195 285 268 357 41 40 71
73 67 73 -4 0 -2 6 4 14 7 8 21 14 31 13 13 -1 -7 -25 -71 -85 -103 -97 -175
-200 -217 -309 -39 -103 -48 -141 -17 -75 43 91 145 234 224 313 88 87 173
149 286 208 94 50 92 47 -40 -46 -194 -137 -316 -259 -395 -393 -28 -48 -59
-114 -47 -100 2 3 45 52 95 110 50 58 121 137 158 175 l66 70 -63 -73 c-96
-109 -161 -195 -192 -254 -32 -60 -25 -53 54 52 53 70 106 126 154 161 16 12
16 9 -5 -21 l-24 -35 25 21 c334 289 409 335 538 333 55 -1 55 -1 21 -11 -19
-5 -60 -19 -90 -30 -30 -11 -63 -21 -73 -22 -11 -1 -35 -15 -55 -31 -20 -16
-59 -45 -88 -65 -29 -19 -82 -63 -118 -97 -36 -33 -94 -84 -129 -112 -58 -45
-118 -110 -142 -151 -5 -8 35 26 89 77 55 51 102 90 106 88 4 -2 18 7 31 21
13 14 38 35 54 47 26 18 25 15 -10 -23 -22 -25 -49 -51 -60 -59 -11 -8 -54
-48 -95 -89 -70 -70 -64 -76 18 -15 36 27 40 24 15 -15 -10 -15 14 5 52 43 84
84 334 255 374 255 21 0 15 -6 -34 -31 -33 -17 -85 -47 -115 -67 -57 -37 -220
-195 -220 -213 0 -6 35 18 78 54 115 95 149 114 86 46 -74 -79 -86 -102 -23
-43 130 122 278 223 378 259 76 26 66 16 -36 -35 -107 -54 -235 -152 -289
-220 -38 -48 -37 -66 1 -30 14 13 25 20 25 15 0 -5 19 9 43 31 79 75 182 140
327 205 92 41 200 64 184 38 -3 -6 -18 -9 -33 -6 -14 2 -42 -1 -61 -8 -31 -12
-32 -14 -10 -14 20 -1 12 -8 -35 -31 -33 -16 -76 -32 -95 -36 -49 -9 -158 -71
-205 -117 l-40 -39 50 35 c56 39 98 61 135 72 14 4 -12 -16 -58 -43 -73 -45
-172 -122 -156 -122 3 0 26 14 51 31 25 18 53 32 62 33 16 1 40 13 91 44 31
19 21 10 -58 -57 -34 -30 -61 -56 -58 -58 2 -3 34 18 70 46 53 41 193 111 224
111 3 0 -27 -20 -69 -44 -41 -24 -97 -65 -125 -90 -48 -45 -47 -45 51 20 119
78 166 105 148 82 -7 -8 -10 -18 -6 -22 4 -4 -1 -4 -11 0 -15 6 -17 4 -11 -6
5 -9 4 -11 -3 -6 -7 4 -12 3 -12 -2 0 -5 -25 -26 -55 -46 -30 -20 -55 -39 -55
-42 0 -4 10 0 23 8 63 41 114 67 120 62 3 -4 -21 -24 -53 -45 -33 -21 -60 -41
-60 -44 0 -3 43 18 97 46 71 39 116 56 171 66 42 7 77 11 79 10 1 -2 -23 -11
-55 -21 -64 -20 -194 -77 -188 -83 2 -2 34 8 72 21 50 18 62 21 45 8 -62 -43
-60 -50 3 -16 38 21 66 33 62 26 -4 -7 5 -9 31 -6 43 5 36 1 -55 -37 -73 -30
-59 -34 24 -6 119 41 135 41 69 3 -33 -20 -58 -36 -55 -36 3 0 44 16 90 35
109 45 145 45 60 0 -78 -41 -75 -43 14 -10 89 33 104 31 34 -6 -32 -16 -58
-31 -58 -33 0 -2 34 9 76 25 76 29 127 36 153 20 9 -6 -1 -11 -30 -15 -24 -4
-62 -16 -84 -27 -22 -10 -31 -17 -20 -13 57 17 184 33 215 28 60 -11 70 -23
20 -25 -25 0 -56 -5 -70 -9 -15 -5 38 -7 130 -6 85 2 164 0 175 -5 15 -7 12
-8 -12 -4 -18 2 -33 0 -33 -5 0 -4 -8 -10 -17 -13 -10 -2 27 -2 82 0 67 3 95
1 86 -5 -11 -8 -10 -11 5 -15 10 -2 -1 -6 -26 -7 -25 -1 -40 -3 -35 -5 17 -5
146 -24 200 -29 l50 -5 -45 20 -45 20 37 -6 c45 -7 57 9 23 31 -13 9 -22 20
-19 25 3 5 -4 9 -15 9 -11 0 -47 15 -81 32 -54 29 -59 34 -38 39 13 4 33 0 46
-8 12 -7 22 -11 22 -8 0 3 -31 25 -68 50 -38 25 -79 59 -91 76 -12 16 -39 41
-61 55 -22 15 -42 34 -45 44 -6 19 -97 93 -157 127 -26 16 -35 18 -31 7 7 -19
-4 -18 -35 5 -15 10 -75 42 -134 71 -60 28 -106 56 -103 60 4 7 -83 49 -243
117 -19 8 -31 9 -27 4 9 -15 4 -14 -60 15 -66 31 -149 54 -185 53 -23 -1 -22
-2 5 -9 l30 -7 -27 -7 c-29 -8 -98 9 -98 25 0 5 -4 9 -10 9 -5 0 -10 -7 -10
-15 0 -8 3 -14 8 -13 4 1 18 -4 32 -11 24 -14 24 -14 -20 -27 -58 -17 -72 -17
-40 1 39 23 16 17 -46 -10 -32 -14 -62 -24 -68 -22 -18 7 -71 -24 -57 -32 7
-5 -8 -18 -40 -36 -29 -15 -87 -52 -131 -80 -43 -29 -78 -51 -78 -49 0 11 156
134 171 134 10 0 26 8 36 19 45 47 235 155 300 170 l38 9 -35 1 c-19 0 -57 -9
-85 -20z m215 -55 l32 -7 -23 -13 c-24 -13 -24 -13 7 -12 38 1 175 -44 251
-83 70 -35 34 -28 -59 12 -36 16 -115 41 -174 55 -60 14 -111 27 -113 30 -7 6
20 24 35 24 6 0 26 -3 44 -6z m-351 -8 c-9 -9 -187 -124 -210 -136 -58 -30 10
21 106 79 88 54 118 70 104 57z m271 -38 c0 -6 -6 -8 -14 -5 -8 3 -16 3 -18
-1 -2 -4 -36 -20 -76 -36 -41 -16 -95 -43 -122 -61 -27 -18 -76 -49 -109 -70
-34 -20 -85 -55 -114 -77 -28 -23 -43 -31 -32 -18 71 83 420 295 466 283 10
-3 19 -10 19 -15z m-190 -22 c0 -2 -7 -7 -16 -10 -8 -3 -12 -2 -9 4 6 10 25
14 25 6z m235 -17 c6 -4 32 -13 60 -20 39 -10 45 -14 29 -20 -28 -11 -102 -11
-109 1 -4 6 8 10 27 11 31 1 31 2 8 8 -14 4 -34 5 -45 1 -11 -4 -42 -11 -70
-14 l-50 -8 55 30 c51 28 71 30 95 11z m116 3 c-7 -2 -18 1 -23 6 -8 8 -4 9
13 5 13 -4 18 -8 10 -11z m155 -59 c30 -9 50 -21 47 -26 -4 -6 1 -8 11 -4 9 4
15 3 12 -2 -3 -4 17 -18 44 -31 28 -13 48 -25 46 -27 -2 -3 -25 5 -50 17 -26
11 -50 19 -55 16 -11 -7 -80 13 -108 31 -37 24 -21 26 32 3 66 -28 69 -17 3
14 -62 29 -56 33 18 9z m-95 -6 c-5 -5 -28 -4 -52 1 l-44 10 52 -1 c28 -1 48
-6 44 -10z m-141 -37 c-14 -4 -65 -20 -115 -35 -49 -15 -118 -40 -152 -55 -35
-16 -63 -27 -63 -25 0 7 120 66 195 96 41 16 89 28 115 28 37 -1 41 -2 20 -9z
m185 -10 c27 -7 25 -8 -18 -9 -29 -1 -46 -5 -42 -11 6 -9 -22 -7 -85 7 -23 5
-24 6 -5 13 25 11 110 10 150 0z m298 -32 c24 -12 36 -23 29 -26 -18 -6 -93
28 -86 39 7 12 9 12 57 -13z m-1163 -1 c0 -2 -10 -12 -22 -23 l-23 -19 19 23
c18 21 26 27 26 19z m755 -11 c38 -7 65 -15 60 -18 -12 -7 -124 -23 -145 -20
-8 1 -32 -5 -53 -13 -20 -8 -59 -15 -85 -15 l-47 0 75 39 c82 44 93 45 195 27z
m189 -6 c14 -14 1 -12 -59 5 l-50 15 50 -5 c27 -3 54 -10 59 -15z m89 3 c-7
-2 -19 -2 -25 0 -7 3 -2 5 12 5 14 0 19 -2 13 -5z m127 -29 c0 -2 -9 -4 -21
-4 -11 0 -18 4 -14 10 5 8 35 3 35 -6z m90 -9 c15 -18 15 -18 -35 0 -40 14
-40 14 -9 15 17 0 37 -7 44 -15z m-187 -2 c-7 -2 -19 -2 -25 0 -7 3 -2 5 12 5
14 0 19 -2 13 -5z m-73 -13 c0 -5 -9 -10 -21 -10 -11 0 -17 5 -14 10 3 6 13
10 21 10 8 0 14 -4 14 -10z m235 -15 c25 -15 32 -24 20 -22 -11 1 -26 6 -33
10 -6 5 -24 15 -40 23 -22 11 -24 14 -7 14 11 0 38 -11 60 -25z m-40 -25 c3
-5 -9 -3 -27 4 -18 8 -34 19 -36 26 -5 13 53 -14 63 -30z m201 -11 c3 -6 -5
-3 -20 6 -14 10 -26 19 -26 22 0 7 39 -17 46 -28z m66 -16 c33 -27 70 -56 82
-65 11 -9 18 -20 14 -23 -8 -8 -29 7 -113 83 -74 65 -64 68 17 5z m-389 20
c-7 -2 -21 -2 -30 0 -10 3 -4 5 12 5 17 0 24 -2 18 -5z m258 -33 c10 0 20 -4
24 -9 6 -11 -39 0 -90 21 l-29 12 24 7 c18 4 29 1 39 -12 7 -11 22 -19 32 -19z
m-262 8 c-13 -5 -34 -6 -46 -3 -12 3 -41 1 -63 -4 -22 -5 -40 -7 -40 -5 0 12
52 22 109 21 48 0 58 -3 40 -9z m322 -26 c-8 -3 -7 -8 6 -18 21 -16 37 -18 28
-4 -10 16 8 11 35 -10 20 -15 21 -20 8 -20 -9 0 -19 4 -22 8 -3 5 -20 7 -38 5
-25 -3 -29 -2 -18 6 12 8 7 11 -22 11 -21 0 -38 4 -38 10 0 5 10 9 23 7 13 -1
21 3 20 10 -2 8 4 10 14 6 11 -5 13 -8 4 -11z m-91 -12 c11 -7 2 -10 -31 -10
-25 0 -75 -3 -110 -6 -45 -5 -61 -3 -54 4 19 20 169 29 195 12z m-375 -40
c-27 -12 -43 -12 -25 0 8 5 22 9 30 9 10 0 8 -3 -5 -9z m135 1 c-50 -30 -259
-86 -237 -65 18 19 177 74 212 74 28 -1 35 -3 25 -9z m255 -1 c27 -7 26 -8
-15 -8 -25 0 -54 3 -65 8 -16 7 -13 9 15 8 19 0 49 -4 65 -8z m-160 -10 c4 -6
-9 -10 -32 -10 -21 0 -49 -2 -63 -5 -14 -3 -7 2 15 9 49 18 72 19 80 6z m450
-30 c18 -20 18 -21 -5 -12 -13 5 -26 14 -28 20 -6 19 13 14 33 -8z m-39 -19
c21 -15 47 -37 56 -47 16 -18 15 -19 -18 -21 -19 -2 -34 1 -34 6 0 5 -15 12
-32 16 -28 7 -30 9 -11 12 12 2 32 -1 44 -7 16 -9 20 -9 14 0 -4 7 -35 25 -69
41 -60 29 -61 29 -25 29 24 0 49 -10 75 -29z m-203 8 c7 -1 1 -5 -13 -9 -27
-9 -146 -13 -139 -5 8 7 113 23 127 19 8 -2 19 -4 25 -5z m107 -5 c3 -3 -10
-4 -28 -1 -19 3 -37 8 -40 12 -4 3 9 3 28 0 19 -3 37 -8 40 -11z m-53 -24
c-16 -5 -38 -5 -50 0 -17 7 -10 9 28 9 43 -1 46 -2 22 -9z m96 3 c-7 -2 -21
-2 -30 0 -10 3 -4 5 12 5 17 0 24 -2 18 -5z m-315 -8 c-3 -3 -38 -12 -79 -20
-41 -8 -85 -17 -99 -20 -14 -2 7 6 45 20 62 21 147 34 133 20z m85 -12 c-7 -2
-21 -2 -30 0 -10 3 -4 5 12 5 17 0 24 -2 18 -5z m403 -24 c47 -29 74 -82 33
-63 -17 7 -84 84 -74 84 4 0 23 -9 41 -21z m-371 -11 c-22 -5 -53 -12 -70 -16
-16 -4 -39 -6 -50 -3 -12 3 7 11 50 21 39 9 79 14 90 11 15 -4 10 -7 -20 -13z
m58 -15 c-7 -2 -19 -2 -25 0 -7 3 -2 5 12 5 14 0 19 -2 13 -5z m302 -3 c3 -5
2 -10 -4 -10 -5 0 -13 5 -16 10 -3 6 -2 10 4 10 5 0 13 -4 16 -10z m-348 -6
c-3 -3 -12 -4 -19 -1 -8 3 -5 6 6 6 11 1 17 -2 13 -5z m218 -9 c17 -6 17 -5 5
5 -12 9 -8 10 20 4 19 -3 49 -12 65 -19 26 -12 17 -13 -80 -10 -60 1 -132 3
-159 4 -27 0 -46 4 -43 8 20 20 140 25 192 8z m-258 -1 c-3 -3 -12 -4 -19 -1
-8 3 -5 6 6 6 11 1 17 -2 13 -5z m487 -9 c19 -15 19 -15 -1 -15 -11 0 -23 7
-27 15 -7 19 3 19 28 0z m-61 -32 c-7 -2 -19 -2 -25 0 -7 3 -2 5 12 5 14 0 19
-2 13 -5z m-41 -15 c21 0 35 -4 32 -9 -3 -5 8 -6 24 -3 17 4 41 0 57 -8 26
-14 22 -15 -56 -11 -81 3 -159 13 -264 33 -38 7 -23 8 60 3 61 -3 127 -6 147
-5z m219 -74 c28 -14 49 -27 46 -30 -2 -3 -51 9 -108 25 l-104 30 58 0 c43 1
71 -6 108 -25z m-74 -40 c-3 -3 -12 -4 -19 -1 -8 3 -5 6 6 6 11 1 17 -2 13 -5z"/>
<path d="M3695 3285 c-25 -12 -26 -14 -5 -9 28 7 60 23 45 23 -5 0 -23 -6 -40
-14z"/>
<path d="M2210 3472 c-267 -149 -460 -336 -586 -568 -92 -169 -161 -352 -178
-474 -4 -31 18 16 72 150 43 107 93 222 109 255 51 99 204 295 310 395 54 51
97 97 96 101 -2 5 3 6 10 4 6 -2 26 7 42 21 17 15 24 23 18 20 -7 -4 -13 -5
-13 -1 0 4 94 67 196 132 47 29 1 9 -76 -35z"/>
<path d="M3350 3500 c-9 -6 -10 -10 -3 -10 6 0 15 5 18 10 8 12 4 12 -15 0z"/>
<path d="M1975 3434 c-11 -9 -44 -26 -73 -39 -146 -66 -337 -240 -446 -405
-20 -30 -36 -50 -36 -45 -1 13 -43 -54 -81 -128 -57 -110 -130 -346 -128 -411
1 -30 1 -30 9 -6 7 25 7 25 11 -5 3 -24 9 -12 28 58 26 96 37 110 21 27 -18
-93 -9 -98 20 -12 35 104 51 123 34 40 -27 -129 -13 -125 35 12 97 275 182
449 281 575 84 105 113 122 44 25 -41 -59 -166 -274 -214 -370 -51 -101 -86
-204 -94 -270 -6 -52 -4 -49 34 54 56 150 199 443 257 524 26 37 88 110 137
162 50 52 67 73 38 45 -29 -27 -52 -44 -52 -38 0 12 85 88 91 82 6 -6 58 33
109 80 l45 42 -40 -17 c-22 -9 -53 -25 -70 -36 -16 -11 -7 1 20 26 49 45 60
61 20 30z m-110 -73 c-3 -6 -45 -40 -93 -77 -48 -36 -76 -55 -62 -40 22 22
150 124 158 126 2 0 1 -4 -3 -9z m-65 -144 c0 -2 -10 -12 -22 -23 l-23 -19 19
23 c18 21 26 27 26 19z m-197 -89 c-53 -58 -89 -112 -172 -258 -39 -69 -71
-122 -71 -117 0 15 83 173 125 237 40 62 140 180 152 180 3 0 -12 -19 -34 -42z"/>
<path d="M1642 3343 c-92 -56 -339 -269 -388 -335 -23 -31 -45 -54 -49 -50 -5
4 -5 1 0 -7 6 -10 4 -12 -4 -7 -8 6 -11 2 -9 -10 2 -11 -2 -18 -9 -16 -12 2
-17 -11 -14 -31 1 -5 -3 -6 -9 -2 -5 3 -10 1 -10 -4 0 -23 18 -8 74 64 32 41
60 75 61 75 2 0 -28 -52 -66 -115 -38 -63 -78 -133 -89 -155 -11 -22 -24 -40
-29 -40 -5 0 -17 -24 -27 -52 -9 -29 -19 -48 -21 -41 -5 14 38 116 45 108 9
-8 61 128 54 140 -3 5 -27 -35 -54 -90 -54 -115 -62 -121 -18 -14 56 135 144
262 303 434 112 121 63 91 -72 -45 -52 -52 -98 -95 -102 -95 -4 0 -11 -4 -16
-9 -5 -5 -3 -6 5 -2 6 4 12 3 12 -2 0 -11 -31 -39 -37 -34 -3 2 -8 0 -11 -4
-4 -4 -1 -4 6 0 19 11 15 2 -24 -55 -20 -30 -47 -75 -60 -101 -13 -27 -27 -48
-29 -48 -8 0 43 97 77 150 26 40 26 41 4 15 -38 -44 -98 -163 -90 -178 4 -6 3
-8 -1 -4 -5 4 -19 -9 -32 -30 -36 -59 -27 -29 21 73 59 125 93 172 205 288
104 107 73 95 -49 -19 l-74 -70 68 85 68 85 -59 -60 c-86 -89 -156 -187 -215
-302 -46 -89 -68 -115 -68 -82 0 6 5 7 11 3 8 -4 9 1 4 16 -5 14 -3 20 3 16 6
-3 8 1 6 11 -3 10 15 59 40 110 24 50 42 94 39 97 -6 5 2 14 114 135 53 58 59
68 28 44 -60 -47 -157 -151 -200 -215 -39 -59 -55 -76 -34 -35 23 43 74 112
118 162 41 45 42 47 7 15 -117 -107 -255 -361 -297 -549 -12 -54 -21 -341 -9
-296 4 17 9 48 11 70 2 26 5 11 8 -40 l6 -80 16 90 17 90 2 -75 2 -75 9 50 c6
28 16 64 24 80 7 17 16 44 20 60 9 42 57 177 61 172 2 -2 -10 -55 -26 -118
-16 -64 -31 -145 -34 -180 l-6 -64 17 50 c15 46 17 48 24 25 4 -14 8 -18 8
-10 1 8 10 42 20 75 l19 60 -4 -90 c-2 -49 -2 -85 1 -80 3 6 20 69 39 140 l34
130 -3 -105 c-2 -65 0 -93 5 -75 7 29 8 29 9 -10 3 -51 7 -41 61 140 116 387
302 657 589 849 70 47 52 46 -27 -1z m-273 -243 c-23 -27 -44 -50 -47 -50 -6
0 15 28 52 68 45 49 43 38 -5 -18z m-403 -187 c-60 -121 -92 -198 -120 -295
-14 -46 -25 -76 -25 -67 -2 38 51 216 83 282 36 75 92 167 101 167 3 0 -15
-39 -39 -87z m-62 -217 c-3 -15 -8 -25 -11 -23 -2 3 -1 17 3 31 3 15 8 25 11
23 2 -3 1 -17 -3 -31z m-17 -58 c-3 -8 -6 -5 -6 6 -1 11 2 17 5 13 3 -3 4 -12
1 -19z m172 -59 c1 8 3 12 6 9 3 -3 1 -16 -4 -29 -9 -21 -10 -22 -11 -4 l-1
20 -9 -20 c-10 -24 -12 -9 -3 24 6 23 7 23 14 5 4 -11 8 -13 8 -5z m-272 -31
c-3 -7 -5 -2 -5 12 0 14 2 19 5 13 2 -7 2 -19 0 -25z m230 10 c-3 -8 -6 -5 -6
6 -1 11 2 17 5 13 3 -3 4 -12 1 -19z m-243 -97 c-4 -34 -9 -60 -11 -57 -3 3
-2 32 2 66 4 34 9 59 12 57 2 -3 1 -33 -3 -66z m253 -43 c-3 -8 -6 -5 -6 6 -1
11 2 17 5 13 3 -3 4 -12 1 -19z"/>
<path d="M1665 3304 c-38 -31 -74 -62 -78 -70 -5 -8 -13 -11 -19 -8 -6 4 -8 3
-5 -3 8 -13 -18 -37 -31 -29 -5 3 -35 -23 -68 -57 l-59 -62 63 60 c34 33 62
55 62 49 0 -6 -14 -23 -31 -40 -17 -16 -65 -76 -107 -134 -41 -58 -85 -113
-96 -123 -12 -10 -14 -16 -6 -12 12 5 12 4 -1 -7 -9 -7 -30 -35 -47 -63 -18
-27 -32 -47 -32 -44 0 9 87 166 113 204 11 17 13 24 4 15 -28 -26 -143 -226
-175 -302 -17 -41 -33 -90 -35 -109 -2 -19 -12 -60 -21 -92 -25 -84 -15 -90
13 -7 28 82 38 87 17 8 -8 -31 -17 -82 -20 -114 l-6 -59 26 75 c14 41 27 76
29 79 3 2 3 -25 0 -60 -6 -76 -8 -80 74 176 103 320 185 459 394 667 64 65
116 118 115 118 -2 0 -34 -25 -73 -56z"/>
<path d="M2839 3343 c-13 -16 -12 -17 4 -4 16 13 21 21 13 21 -2 0 -10 -8 -17
-17z"/>
<path d="M3025 3330 c-3 -5 -2 -10 4 -10 5 0 13 5 16 10 3 6 2 10 -4 10 -5 0
-13 -4 -16 -10z"/>
<path d="M924 3063 c-71 -70 -151 -192 -200 -307 -51 -119 -57 -111 -13 18 37
107 78 193 125 259 44 61 43 70 -1 17 -136 -163 -213 -396 -220 -670 -4 -152
-4 -154 9 -85 13 68 14 68 15 24 2 -70 13 -139 21 -134 4 3 11 31 15 62 4 32
13 65 20 73 7 8 16 53 19 100 4 47 14 116 21 154 8 38 13 71 11 74 -2 2 -7
-11 -11 -28 -4 -17 -9 -29 -11 -27 -3 3 4 42 16 87 27 108 94 238 175 345 36
47 64 85 62 85 -2 0 -26 -21 -53 -47z"/>
<path d="M1359 3023 c-13 -16 -12 -17 4 -4 9 7 17 15 17 17 0 8 -8 3 -21 -13z"/>
<path d="M659 2915 c-58 -129 -80 -227 -91 -410 -7 -100 -8 -203 -3 -250 l9
-80 7 60 c4 33 13 128 18 210 10 135 37 279 69 365 5 14 7 31 4 39 -3 9 0 11
8 6 10 -6 12 -4 7 7 -3 9 6 40 19 69 34 73 13 50 -30 -34 -43 -83 -47 -71 -7
18 17 36 27 65 25 65 -3 0 -18 -29 -35 -65z"/>
<path d="M210 2843 c-18 -61 -24 -206 -11 -273 11 -56 83 -264 145 -420 52
-130 14 5 -47 165 -100 265 -114 348 -83 495 16 73 13 92 -4 33z"/>
<path d="M461 2814 c0 -11 3 -14 6 -6 3 7 2 16 -1 19 -3 4 -6 -2 -5 -13z"/>
<path d="M444 2723 c-4 -37 -3 -124 2 -193 5 -69 9 -192 8 -275 -1 -82 2 -139
6 -125 5 14 8 42 9 63 1 26 5 37 16 37 14 0 15 16 9 128 -4 70 -8 129 -10 131
-2 2 -4 -27 -5 -65 l-1 -69 -15 95 c-9 62 -13 138 -10 218 3 67 3 122 2 122
-2 0 -7 -30 -11 -67z"/>
<path d="M531 2764 c0 -11 3 -14 6 -6 3 7 2 16 -1 19 -3 4 -6 -2 -5 -13z"/>
<path d="M359 2698 c-7 -40 -14 -143 -14 -228 0 -129 3 -161 18 -190 9 -19 14
-26 10 -15 -12 37 -15 333 -4 416 14 103 7 114 -10 17z"/>
<path d="M481 2754 c0 -11 3 -14 6 -6 3 7 2 16 -1 19 -3 4 -6 -2 -5 -13z"/>
<path d="M4948 2753 c7 -3 16 -2 19 1 4 3 -2 6 -13 5 -11 0 -14 -3 -6 -6z"/>
<path d="M539 2693 c-13 -54 -14 -56 -21 -28 -3 17 -6 -90 -5 -237 1 -181 6
-271 13 -278 19 -19 26 97 19 294 -5 119 -4 201 4 240 14 78 7 84 -10 9z m-12
-285 c-2 -29 -3 -6 -3 52 0 58 1 81 3 53 2 -29 2 -77 0 -105z"/>
<path d="M522 2720 c0 -14 2 -19 5 -12 2 6 2 18 0 25 -3 6 -5 1 -5 -13z"/>
<path d="M474 2635 c0 -55 1 -76 3 -47 2 29 2 74 0 100 -2 26 -3 2 -3 -53z"/>
<path d="M61 2594 c-2 -95 53 -217 178 -393 45 -63 81 -118 81 -124 0 -6 3 -8
6 -5 9 10 -35 87 -104 183 -96 134 -140 229 -152 330 l-7 60 -2 -51z"/>
<path d="M395 2325 c3 -82 9 -163 14 -180 8 -24 9 -18 5 30 -3 33 -10 114 -14
180 l-9 120 4 -150z"/>
<path d="M90 2289 c0 -26 55 -104 102 -142 69 -57 69 -44 1 26 -34 34 -71 78
-82 97 -12 19 -21 28 -21 19z"/>
<path d="M30 2235 c8 -10 58 -50 110 -88 52 -39 104 -78 115 -86 11 -9 2 4
-20 28 -40 43 -234 181 -205 146z"/>
</g>
</svg>
