<?xml version="1.0" standalone="no"?>
<!DOCTYPE svg PUBLIC "-//W3C//DTD SVG 20010904//EN"
 "http://www.w3.org/TR/2001/REC-SVG-20010904/DTD/svg10.dtd">
<svg version="1.0" xmlns="http://www.w3.org/2000/svg"
 width="500.000000px" height="200.000000px" viewBox="0 0 1920.000000 1080.000000"
 preserveAspectRatio="xMidYMid meet">

<g transform="translate(0.000000,1080.000000) scale(0.100000,-0.100000)"
fill="#000000" stroke="none">
<path d="M11061 10276 c-95 -32 -149 -40 -481 -76 -151 -16 -322 -35 -380 -41
-70 -8 -150 -26 -243 -55 -200 -64 -217 -67 -382 -70 -130 -2 -194 -10 -480
-59 -181 -31 -355 -60 -385 -65 -30 -5 -164 -14 -298 -20 l-243 -11 -442 -90
c-448 -91 -512 -107 -580 -141 -21 -10 -80 -28 -130 -38 -142 -30 -828 -234
-917 -273 -54 -23 -189 -63 -245 -72 -33 -5 -243 -46 -545 -106 -30 -6 -125
-33 -210 -59 -85 -26 -171 -51 -190 -55 -19 -4 -63 -20 -96 -36 -34 -16 -66
-29 -72 -29 -22 0 -174 -54 -291 -105 -69 -30 -145 -59 -168 -65 -23 -5 -63
-26 -90 -45 -26 -19 -102 -64 -168 -101 -66 -37 -127 -73 -135 -79 -8 -7 -145
-84 -305 -171 -159 -87 -322 -176 -361 -199 -40 -22 -96 -53 -125 -70 -82 -46
-273 -236 -300 -299 -12 -28 -41 -76 -64 -106 -23 -30 -49 -68 -57 -85 -18
-35 -38 -123 -38 -166 0 -16 -9 -48 -21 -71 -28 -55 -35 -141 -16 -195 12 -37
13 -49 1 -80 -16 -46 -18 -306 -4 -533 23 -359 30 -437 39 -475 6 -22 11 -89
11 -150 0 -60 7 -139 15 -175 8 -36 15 -101 15 -145 0 -44 7 -109 15 -145 8
-36 14 -95 15 -132 0 -37 5 -70 10 -73 6 -4 34 9 63 27 91 60 223 132 392 215
60 30 134 70 165 88 48 30 251 119 319 140 31 9 112 73 148 115 14 17 67 59
117 92 50 33 116 80 146 103 47 35 275 162 451 251 75 38 331 124 368 124 11
0 62 21 113 48 91 47 234 115 475 227 68 31 162 67 210 81 49 14 112 32 142
40 30 9 89 33 132 55 42 22 115 53 161 69 46 16 139 50 208 75 69 25 195 70
280 100 237 84 262 95 300 130 19 18 58 44 86 58 53 27 88 37 439 132 116 31
237 70 270 86 33 15 80 33 105 39 68 15 277 40 341 40 43 0 74 8 132 34 177
81 249 103 513 155 239 47 254 49 568 81 239 24 331 38 465 69 231 54 347 79
411 86 30 3 145 33 255 65 110 33 229 66 265 74 36 9 97 25 135 36 172 50 415
80 755 95 80 4 166 13 193 20 55 16 175 30 402 46 122 9 184 19 260 41 95 28
114 30 380 39 271 9 287 11 505 54 371 72 474 85 687 85 107 -1 239 -7 308
-16 66 -9 140 -18 164 -21 25 -3 68 0 96 7 42 10 90 9 261 -4 115 -9 227 -21
249 -27 24 -7 198 -14 430 -19 408 -7 387 -5 730 -66 91 -16 198 -42 540 -133
105 -28 262 -69 350 -92 88 -23 187 -52 220 -64 83 -31 252 -81 300 -90 44 -7
280 -78 335 -100 19 -7 84 -34 144 -59 123 -51 130 -50 121 24 -14 100 -83
185 -195 239 -30 15 -89 50 -130 80 -41 29 -106 69 -145 88 -38 19 -106 61
-150 93 -166 119 -457 279 -573 315 -12 3 -200 96 -417 205 -218 109 -419 208
-448 219 -28 10 -162 70 -297 131 -135 61 -274 121 -310 132 -116 38 -311 114
-490 193 -248 109 -320 134 -413 144 -78 9 -401 66 -732 131 -209 41 -410 95
-540 146 -138 54 -317 84 -494 84 -68 0 -169 6 -225 14 -354 51 -508 63 -941
77 -165 5 -345 13 -400 19 -243 23 -284 22 -364 -4z"/>
</g>
</svg>
