<?xml version="1.0" standalone="no"?>
<!DOCTYPE svg PUBLIC "-//W3C//DTD SVG 20010904//EN"
 "http://www.w3.org/TR/2001/REC-SVG-20010904/DTD/svg10.dtd">
<svg version="1.0" xmlns="http://www.w3.org/2000/svg"
 width="100%" height="100%" viewBox="0 0 1800.000000 1080.000000"
 preserveAspectRatio="xMidYMid meet" fill="#000000"  stroke="transparent">

<g transform="translate(-100.000000,1960.000000) scale(0.38,-0.36)"
stroke="none">
<path d="M3855 3349 c-67 -16 -192 -82 -356 -187 -408 -261 -644 -370 -941
-436 -365 -81 -637 -57 -1141 101 -207 65 -214 67 -322 67 -100 0 -263 -20
-252 -30 3 -3 33 0 68 6 112 18 265 12 344 -13 l69 -23 -44 -48 c-25 -27 -71
-69 -104 -93 -32 -23 -55 -43 -52 -43 11 0 109 51 141 74 26 18 25 14 -14 -32
-42 -51 -95 -104 -136 -137 -11 -9 -13 -13 -5 -9 30 14 -76 -89 -142 -138 -61
-46 -88 -71 -55 -52 93 55 196 135 314 246 40 38 75 68 78 68 9 0 -72 -97
-125 -150 -54 -54 -25 -34 44 29 l49 46 -31 -41 c-61 -80 -223 -216 -349 -293
-29 -18 -53 -35 -53 -37 0 -7 84 42 195 115 55 35 106 66 113 67 8 1 22 10 31
18 10 9 21 13 24 10 4 -4 15 -1 24 7 17 13 17 13 3 -6 -8 -11 -19 -23 -24 -27
-5 -3 -11 -14 -12 -22 -3 -19 -51 -77 -103 -124 -22 -20 -27 -29 -14 -22 12 5
25 15 28 20 3 5 16 15 28 21 12 5 -23 -34 -78 -88 -55 -54 -84 -87 -65 -73 19
14 38 25 42 25 4 0 15 10 23 23 9 12 20 20 25 17 5 -3 19 8 31 24 12 17 25 28
29 26 4 -3 14 3 21 13 13 16 13 16 -6 2 -11 -8 0 8 23 35 24 28 77 92 118 143
41 50 77 92 79 92 10 0 -65 -118 -101 -159 -23 -25 -42 -50 -42 -54 0 -5 -4
-12 -8 -15 -4 -4 -4 -1 0 6 7 11 4 11 -13 1 -11 -8 -16 -16 -11 -19 5 -3 -9
-28 -31 -55 -22 -28 6 -3 62 55 57 58 98 98 93 90 -36 -52 -135 -174 -183
-224 l-56 -60 50 41 c52 42 136 129 193 198 l33 40 -27 -45 c-14 -25 -32 -52
-38 -60 -6 -9 -1 -5 12 8 12 13 22 20 22 16 0 -16 53 43 97 108 25 37 50 65
55 62 4 -3 8 -1 8 3 0 5 7 18 15 29 14 17 14 15 1 -19 -9 -21 -25 -51 -36 -67
-22 -31 -26 -45 -9 -35 30 19 -78 -154 -160 -255 l-44 -55 49 48 c28 26 53 45
56 42 3 -3 11 2 19 12 12 14 12 15 0 9 -9 -6 -12 -5 -9 5 3 8 10 13 15 12 6
-1 45 43 88 97 43 55 79 100 81 100 8 0 -50 -107 -118 -217 -11 -18 -17 -33
-15 -33 3 0 22 26 41 59 20 32 43 65 52 72 36 30 -77 -162 -153 -261 l-35 -45
46 50 c26 28 67 80 92 117 26 36 52 65 58 62 13 -5 61 78 125 214 46 95 67
122 31 38 -11 -27 -18 -52 -15 -56 13 -21 -137 -353 -189 -419 -8 -11 -8 -13
0 -8 10 6 147 221 200 314 29 51 36 27 8 -29 -14 -27 -24 -52 -22 -54 3 -2 46
78 96 178 51 100 92 180 92 177 0 -19 -53 -156 -85 -219 -52 -104 -115 -201
-126 -195 -5 4 -6 -1 -3 -9 10 -26 20 -19 54 34 18 28 34 50 36 50 3 0 -22
-63 -36 -89 -25 -45 -80 -161 -76 -161 3 0 28 42 56 93 54 97 148 214 135 167
-16 -55 -93 -195 -138 -254 l-48 -61 48 50 c26 27 52 49 56 47 5 -1 6 2 3 7
-4 5 -2 11 3 13 14 5 146 276 167 340 22 72 29 68 14 -9 -17 -84 -85 -252
-130 -321 -21 -33 -36 -62 -33 -65 2 -3 -3 -17 -12 -31 -10 -14 -15 -26 -12
-26 3 0 29 39 58 88 29 48 58 94 65 102 7 9 41 70 75 135 33 66 58 109 55 95
-5 -21 -4 -21 9 5 8 17 13 41 10 55 -2 14 -1 18 2 10 4 -9 14 12 25 55 14 53
17 59 13 25 -11 -85 -48 -202 -95 -296 -26 -52 -46 -94 -45 -94 6 0 69 104
100 167 28 55 33 61 29 33 -7 -40 -80 -200 -125 -272 -39 -64 -20 -53 22 12
18 27 36 47 42 43 6 -4 7 -1 2 6 -4 8 2 21 14 33 l22 19 -7 -28 c-4 -15 -13
-43 -21 -60 -7 -18 -10 -33 -5 -33 4 0 35 82 69 183 57 172 61 179 58 122 -5
-77 -37 -183 -83 -265 -19 -36 -28 -59 -19 -52 9 8 19 22 22 33 4 11 10 17 15
14 12 -7 29 26 22 44 -3 8 0 11 6 7 7 -4 25 20 46 61 19 37 35 62 36 55 0 -24
-51 -165 -85 -234 -19 -37 -33 -68 -31 -68 3 0 18 24 35 53 36 61 39 57 11
-13 -11 -28 -20 -54 -20 -58 2 -20 40 71 164 388 12 33 -8 -69 -26 -128 -11
-35 -18 -66 -15 -68 3 -4 26 67 56 176 5 19 10 27 10 17 2 -30 -28 -160 -54
-236 -13 -39 -22 -71 -20 -71 19 0 56 113 119 355 3 11 2 -14 -1 -55 -4 -63
-19 -142 -58 -320 -11 -49 37 87 59 170 l24 85 7 -50 c5 -33 3 -79 -8 -139 -9
-50 -14 -92 -12 -94 4 -5 32 121 49 223 l13 80 -2 -150 c-2 -154 8 -154 20 0
7 82 51 354 58 362 3 2 3 -38 1 -89 -2 -62 0 -83 5 -63 8 29 9 29 10 -10 0
-22 -3 -67 -9 -100 -5 -33 -11 -96 -14 -140 -6 -106 7 -65 38 125 24 145 34
152 16 11 -6 -41 -8 -77 -5 -79 7 -7 12 15 26 116 7 50 16 92 19 92 9 0 19
-110 21 -215 l2 -80 10 85 c6 47 12 76 13 65 2 -11 6 -51 11 -90 l7 -70 6 75
c3 41 4 84 1 95 -4 11 -4 72 0 135 l5 115 4 -120 c2 -66 5 -101 7 -77 7 74 19
45 32 -75 17 -159 22 -162 17 -13 -3 114 -2 120 8 70 16 -78 24 -51 15 55 -4
50 -6 91 -4 93 2 2 9 -29 16 -68 8 -46 15 -66 21 -58 5 8 7 -3 3 -27 -3 -26
-2 -33 3 -21 8 18 26 -52 46 -174 17 -106 -14 272 -39 465 -10 83 24 -56 41
-165 9 -58 18 -112 21 -120 3 -8 5 -26 4 -39 -2 -14 1 -21 8 -17 7 5 11 -5 12
-26 0 -18 3 -28 5 -22 3 7 -2 65 -10 130 -9 64 -14 119 -13 121 2 2 17 -53 33
-123 16 -69 30 -121 32 -115 2 5 -8 76 -23 157 -14 81 -24 149 -22 150 2 2 18
-60 36 -139 39 -168 39 -168 40 -140 1 12 -11 88 -25 169 -14 80 -24 148 -22
150 2 2 28 -75 58 -171 29 -96 55 -173 58 -170 2 2 -1 33 -7 68 -6 36 -8 73
-4 83 4 12 3 15 -5 10 -8 -5 -11 -1 -10 11 2 10 -5 53 -15 96 -11 43 -17 81
-14 83 2 3 19 -38 37 -90 18 -53 37 -93 43 -89 5 3 6 -3 2 -17 -5 -17 -4 -21
6 -15 9 6 11 3 6 -9 -4 -9 -3 -15 2 -12 5 3 14 -8 21 -24 15 -36 26 -45 36
-29 5 8 3 9 -6 4 -8 -5 -11 -3 -8 6 3 8 -4 34 -14 58 -10 25 -16 51 -14 58 4
9 1 11 -6 7 -8 -5 -9 -2 -5 9 3 10 2 17 -4 17 -6 0 -8 4 -5 9 4 5 -3 29 -13
54 -21 48 -71 240 -70 266 0 9 20 -42 44 -113 43 -125 127 -311 160 -351 9
-11 3 7 -13 40 -28 57 -82 199 -82 213 0 4 21 -31 46 -78 62 -116 75 -125 20
-15 -46 93 -120 284 -113 291 2 2 35 -64 72 -146 38 -83 72 -153 77 -156 5 -4
-3 18 -18 47 -34 68 -29 64 44 -46 33 -49 75 -103 93 -120 l33 -30 -31 37
c-17 20 -51 70 -74 110 -42 71 -159 318 -159 335 0 4 38 -58 83 -138 98 -173
144 -237 194 -274 l38 -28 -42 44 c-53 55 -57 75 -5 28 l37 -34 -34 38 c-40
43 -31 50 13 10 17 -15 10 -5 -15 22 -109 119 -176 222 -93 144 46 -43 134
-117 179 -149 11 -8 -19 22 -66 67 -47 45 -98 100 -113 122 -16 22 -33 38 -39
34 -6 -3 -7 -1 -3 6 5 7 46 -25 119 -93 109 -102 156 -134 86 -58 -77 83 -79
93 -5 22 92 -87 89 -78 -9 40 -76 90 -147 189 -184 255 -13 23 -15 30 -4 15
101 -138 142 -190 182 -229 53 -53 146 -126 117 -93 -23 26 -16 27 27 7 32
-15 32 -15 7 2 -42 30 -101 85 -111 105 -6 12 7 6 36 -17 49 -37 112 -73 70
-40 -70 56 -171 170 -220 250 -25 40 -8 22 43 -46 52 -69 140 -153 207 -199
46 -31 44 -28 -25 37 -42 39 -95 99 -119 134 l-44 64 39 -37 c21 -20 43 -37
48 -36 13 1 97 -73 91 -81 -2 -5 5 -17 18 -27 l22 -19 -19 23 c-11 12 -14 22
-9 22 6 0 16 -7 23 -15 7 -9 15 -13 18 -10 3 3 12 -1 21 -8 14 -11 14 -10 2 5
-7 10 -17 15 -22 12 -5 -3 -9 0 -9 5 0 18 14 13 76 -24 32 -19 63 -35 68 -35
6 1 -5 10 -26 20 -20 11 -58 41 -85 67 -27 27 -39 39 -26 29 13 -11 23 -16 23
-13 0 4 24 -6 53 -23 30 -16 58 -30 63 -30 5 0 -16 14 -46 32 -68 38 -236 207
-269 268 -30 56 -18 44 42 -41 45 -65 129 -149 171 -171 19 -10 20 -10 7 5 -7
10 -10 17 -6 17 4 0 2 6 -5 14 -6 8 -19 12 -27 9 -10 -4 -14 -2 -10 4 3 5 -7
23 -24 39 -17 16 -40 43 -52 59 l-21 30 30 -25 c15 -14 46 -42 68 -63 21 -21
41 -35 44 -33 3 3 17 -3 32 -14 33 -23 149 -90 157 -90 4 0 -12 13 -33 28 -49
36 -156 143 -185 185 -16 23 -5 16 37 -24 93 -89 118 -91 33 -3 -42 44 -82 90
-89 104 -15 30 -18 32 59 -57 34 -40 67 -73 73 -73 6 0 5 7 -3 18 -13 15 -12
16 3 3 10 -7 16 -17 13 -21 -2 -4 4 -15 15 -25 11 -10 17 -21 15 -26 -3 -4 0
-11 6 -15 8 -4 9 -3 5 4 -10 16 0 15 29 -4 41 -27 28 -10 -20 26 -50 37 -53
50 -6 26 48 -25 49 -18 0 13 -24 15 -57 43 -74 61 l-30 34 50 -36 c50 -35 167
-98 182 -98 4 1 -2 7 -15 14 -25 13 -61 41 -119 90 -57 49 -22 49 62 1 44 -25
84 -45 90 -45 5 0 3 5 -5 10 -8 5 -11 10 -5 10 5 0 -27 22 -70 49 -73 45 -151
111 -130 111 4 0 0 10 -11 22 -10 11 3 5 29 -15 84 -64 271 -158 252 -127 -3
6 -12 10 -18 10 -21 0 -190 115 -227 155 l-35 38 49 -37 c52 -39 144 -89 186
-100 14 -4 -4 9 -40 29 -94 52 -107 72 -20 31 41 -19 89 -38 105 -41 27 -5 25
-3 -10 14 l-40 19 40 -4 40 -5 -50 18 c-69 25 -140 68 -192 116 -52 48 -49 63
4 17 52 -46 127 -78 198 -84 l60 -5 -55 12 -55 12 60 6 c50 5 54 6 20 8 -32 2
-36 4 -20 11 20 8 20 9 -1 9 -28 1 -137 56 -159 81 -18 20 -18 20 25 5 68 -24
92 -18 35 9 -27 13 -65 39 -83 58 l-33 35 53 22 c80 34 134 37 225 13 158 -41
225 -32 173 23 -52 55 -217 89 -315 64z m-114 -366 c13 -16 12 -17 -3 -4 -17
13 -22 21 -14 21 2 0 10 -8 17 -17z m-580 -130 c13 -16 12 -17 -3 -4 -17 13
-22 21 -14 21 2 0 10 -8 17 -17z m200 -110 c23 -32 35 -52 25 -44 -18 15 -80
101 -73 101 3 0 24 -26 48 -57z m-68 -155 c42 -58 91 -118 108 -132 17 -14 26
-26 21 -26 -22 0 -151 156 -202 245 -33 57 -14 35 73 -87z m128 75 c13 -16 12
-17 -3 -4 -17 13 -22 21 -14 21 2 0 10 -8 17 -17z m74 -53 c27 -27 47 -50 44
-50 -3 0 -27 23 -54 50 -27 28 -47 50 -44 50 3 0 27 -22 54 -50z m-1879 -50
c-34 -79 -112 -220 -122 -220 -3 0 9 26 25 58 17 31 51 101 77 156 25 54 47
96 50 93 2 -2 -11 -41 -30 -87z m-306 77 c0 -2 -10 -12 -22 -23 l-23 -19 19
23 c18 21 26 27 26 19z m146 -156 c-20 -39 -38 -71 -41 -71 -3 0 12 34 32 75
20 41 39 73 41 71 2 -2 -13 -36 -32 -75z m1261 27 c-3 -8 -6 -5 -6 6 -1 11 2
17 5 13 3 -3 4 -12 1 -19z m544 5 c13 -16 12 -17 -3 -4 -17 13 -22 21 -14 21
2 0 10 -8 17 -17z m-1540 -40 c-12 -20 -14 -14 -5 12 4 9 9 14 11 11 3 -2 0
-13 -6 -23z m236 5 c-3 -8 -6 -5 -6 6 -1 11 2 17 5 13 3 -3 4 -12 1 -19z m-10
-40 c-3 -8 -6 -5 -6 6 -1 11 2 17 5 13 3 -3 4 -12 1 -19z m-246 -15 c-12 -20
-14 -14 -5 12 4 9 9 14 11 11 3 -2 0 -13 -6 -23z m686 -45 c-2 -13 -4 -3 -4
22 0 25 2 35 4 23 2 -13 2 -33 0 -45z m-538 -8 c-11 -47 -54 -133 -75 -151 -8
-6 7 37 33 95 26 58 48 105 49 103 2 -1 -2 -22 -7 -47z m-456 0 c-9 -17 -28
-43 -41 -58 -13 -15 -6 -1 14 31 38 59 58 79 27 27z m774 8 c-3 -8 -6 -5 -6 6
-1 11 2 17 5 13 3 -3 4 -12 1 -19z m-441 -25 c-8 -15 -15 -25 -16 -21 0 12 23
58 27 54 3 -2 -2 -17 -11 -33z m-166 -23 c-11 -22 -23 -40 -25 -40 -3 0 4 18
15 40 11 22 23 40 25 40 3 0 -4 -18 -15 -40z m1690 4 c0 -1 -4 -5 -9 -8 -5 -3
-16 6 -26 20 l-16 25 25 -16 c14 -10 26 -19 26 -21z m-1090 11 c0 -8 -2 -15
-4 -15 -2 0 -6 7 -10 15 -3 8 -1 15 4 15 6 0 10 -7 10 -15z m87 -37 c-3 -8 -6
-5 -6 6 -1 11 2 17 5 13 3 -3 4 -12 1 -19z m-102 -10 c-15 -52 -48 -138 -51
-135 -2 2 5 32 17 68 11 35 22 70 25 77 2 6 6 12 9 12 4 0 3 -10 0 -22z m-595
-68 c-12 -23 -24 -40 -26 -37 -3 3 5 23 18 45 12 23 24 39 26 37 2 -2 -6 -22
-18 -45z"/>
<path d="M3700 2902 c19 -17 49 -38 65 -48 38 -21 32 -15 -25 28 -60 46 -83
57 -40 20z"/>
<path d="M798 2853 c7 -3 16 -2 19 1 4 3 -2 6 -13 5 -11 0 -14 -3 -6 -6z"/>
<path d="M3800 2836 c0 -3 9 -10 20 -16 11 -6 20 -8 20 -6 0 3 -9 10 -20 16
-11 6 -20 8 -20 6z"/>
<path d="M3701 2827 c2 -1 15 -11 29 -22 l25 -20 -19 23 c-11 12 -24 22 -29
22 -6 0 -8 -1 -6 -3z"/>
<path d="M3596 2660 c5 -8 9 -18 9 -22 0 -5 4 -8 8 -7 5 1 22 -12 38 -27 16
-15 29 -26 29 -23 0 3 -21 25 -46 49 -26 25 -43 38 -38 30z"/>
<path d="M3435 2590 c21 -22 41 -40 44 -40 3 0 -13 18 -34 40 -21 22 -41 40
-44 40 -3 0 13 -18 34 -40z"/>
<path d="M1433 2375 c-23 -40 -65 -104 -94 -141 -28 -38 -43 -61 -32 -51 11 9
22 14 26 11 8 -8 112 144 112 164 0 9 8 32 18 50 36 66 11 39 -30 -33z m-52
-112 c-14 -24 -55 -72 -45 -53 10 20 47 70 51 70 2 0 -1 -8 -6 -17z"/>
<path d="M1165 2400 c-31 -32 -56 -42 -34 -12 7 9 1 6 -14 -7 -15 -14 -25 -27
-22 -29 3 -3 -5 -16 -17 -29 -12 -13 -18 -23 -13 -23 4 0 0 -10 -11 -22 -16
-19 77 54 126 99 13 12 12 13 -5 7 -18 -6 -17 -4 4 19 34 37 22 34 -14 -3z
m-21 -41 c-10 -12 -32 -30 -49 -42 l-30 -21 23 25 c12 14 20 28 16 31 -3 3 0
9 7 14 8 4 10 3 5 -4 -11 -17 9 -15 24 3 7 8 15 15 18 15 3 0 -3 -9 -14 -21z"/>
<path d="M1597 2265 c-31 -63 -55 -115 -52 -115 7 0 117 221 113 226 -2 2 -29
-48 -61 -111z"/>
<path d="M1054 2328 l-19 -23 23 19 c21 18 27 26 19 26 -2 0 -12 -10 -23 -22z"/>
<path d="M1024 2278 l-19 -23 23 19 c21 18 27 26 19 26 -2 0 -12 -10 -23 -22z"/>
<path d="M999 2233 c-13 -16 -12 -17 4 -4 9 7 17 15 17 17 0 8 -8 3 -21 -13z"/>
<path d="M2422 2195 c0 -16 2 -22 5 -12 2 9 2 23 0 30 -3 6 -5 -1 -5 -18z"/>
<path d="M1309 2163 c-13 -16 -12 -17 4 -4 9 7 17 15 17 17 0 8 -8 3 -21 -13z"/>
<path d="M2412 2120 c0 -14 2 -19 5 -12 2 6 2 18 0 25 -3 6 -5 1 -5 -13z"/>
<path d="M1254 2098 l-29 -33 33 29 c30 28 37 36 29 36 -2 0 -16 -15 -33 -32z"/>
<path d="M2301 2114 c0 -11 3 -14 6 -6 3 7 2 16 -1 19 -3 4 -6 -2 -5 -13z"/>
<path d="M1602 2068 c-28 -52 -23 -60 9 -14 13 19 28 32 34 28 5 -3 4 2 -4 11
-7 9 -14 17 -15 17 0 0 -11 -19 -24 -42z"/>
<path d="M2861 2044 c0 -11 3 -14 6 -6 3 7 2 16 -1 19 -3 4 -6 -2 -5 -13z"/>
<path d="M2531 1964 c0 -11 3 -14 6 -6 3 7 2 16 -1 19 -3 4 -6 -2 -5 -13z"/>
<path d="M1956 1954 c-9 -24 -2 -26 12 -4 7 11 8 20 3 20 -5 0 -12 -7 -15 -16z"/>
<path d="M1849 1933 c-13 -16 -12 -17 4 -4 9 7 17 15 17 17 0 8 -8 3 -21 -13z"/>
<path d="M2341 1894 c0 -11 3 -14 6 -6 3 7 2 16 -1 19 -3 4 -6 -2 -5 -13z"/>
</g>
</svg>
