<?xml version="1.0" standalone="no"?>
<!DOCTYPE svg PUBLIC "-//W3C//DTD SVG 20010904//EN"
 "http://www.w3.org/TR/2001/REC-SVG-20010904/DTD/svg10.dtd">
<svg version="1.0" xmlns="http://www.w3.org/2000/svg"
 width="500.000000px" height="200.000000px" viewBox="0 0 500.000000 500.000000"
 preserveAspectRatio="xMidYMid meet">

<g transform="translate(0.000000,500.000000) scale(0.100000,-0.100000)"
fill="#000000" stroke="none">
<path d="M4550 3644 c-25 -14 -66 -34 -91 -44 -26 -9 -62 -29 -80 -42 -19 -14
-55 -35 -81 -46 -74 -32 -146 -106 -255 -260 -17 -24 -45 -59 -61 -76 -17 -17
-46 -56 -65 -87 -20 -31 -48 -64 -64 -74 -54 -35 -146 -131 -218 -225 -89
-117 -140 -164 -236 -220 -41 -24 -97 -61 -125 -82 -28 -21 -71 -44 -95 -52
-24 -8 -145 -51 -269 -96 -124 -44 -250 -87 -280 -95 -30 -8 -98 -25 -150 -39
-52 -14 -174 -37 -270 -51 -96 -14 -206 -31 -245 -37 -81 -12 -565 -4 -749 12
-66 6 -162 20 -215 31 -132 27 -252 34 -348 20 -133 -19 -313 -69 -348 -96
-97 -74 -81 -237 28 -289 38 -17 121 -21 159 -7 13 4 39 11 59 15 l35 6 23
-65 c27 -75 136 -270 223 -397 196 -287 571 -525 638 -406 25 46 0 77 -89 110
-230 84 -419 286 -598 637 -35 68 -63 127 -63 132 0 10 138 11 192 1 30 -6 44
-18 83 -72 52 -71 536 -558 656 -658 81 -68 283 -192 312 -192 21 0 67 43 67
63 0 29 -42 66 -147 127 -124 74 -171 114 -426 357 -177 171 -321 322 -313
331 3 2 55 0 118 -3 l113 -8 52 -66 c173 -220 428 -422 676 -536 103 -46 110
-48 135 -34 34 18 42 71 16 100 -9 10 -64 41 -121 69 -188 90 -404 248 -521
381 l-55 64 133 3 c120 2 138 0 179 -19 239 -114 580 -271 683 -315 178 -76
279 -88 307 -35 30 55 -2 89 -99 106 -77 13 -198 64 -524 219 -175 83 -174 77
-27 97 70 8 90 8 115 -4 35 -17 340 -90 461 -112 44 -8 150 -30 235 -49 194
-45 424 -65 470 -41 51 26 51 83 1 109 -16 9 -76 17 -152 21 -68 4 -164 15
-214 25 -78 16 -319 66 -483 101 -30 6 -52 13 -49 15 2 2 52 18 111 34 60 17
122 38 139 46 24 13 38 14 66 6 20 -6 86 -18 146 -27 61 -9 207 -42 325 -72
567 -144 646 -160 758 -151 82 7 116 57 73 109 -16 21 -30 23 -147 31 -104 6
-166 17 -324 58 -107 27 -282 71 -387 97 -106 27 -193 50 -193 54 0 3 48 22
107 43 l106 38 136 -11 c75 -6 208 -16 296 -22 88 -6 201 -18 250 -26 50 -8
169 -17 265 -20 168 -5 176 -4 203 17 36 29 37 71 1 99 -24 19 -40 21 -180 21
-86 0 -195 6 -247 15 -92 14 -242 28 -435 41 l-103 6 88 60 c49 33 104 75 123
94 33 32 40 34 101 34 37 0 105 -11 160 -25 115 -30 310 -56 446 -58 89 -2
105 1 130 19 34 25 42 68 17 95 -14 15 -31 19 -91 19 -118 0 -310 20 -408 42
-49 11 -119 26 -155 32 l-65 12 65 68 c36 37 82 77 102 87 20 10 53 38 73 62
l36 43 72 -8 c40 -4 167 -19 282 -33 116 -13 251 -27 300 -30 50 -3 107 -8
128 -11 l37 -6 0 70 0 69 -61 7 c-34 3 -83 6 -109 6 -26 0 -134 11 -241 24
-107 13 -224 27 -261 31 l-66 7 42 58 c24 32 56 74 72 94 l30 35 98 -15 c53
-8 116 -18 139 -23 23 -5 90 -12 149 -16 106 -7 107 -7 133 19 31 31 32 60 2
90 -21 21 -37 25 -141 31 -65 4 -141 13 -169 19 l-52 11 64 24 c45 16 79 38
116 74 65 63 84 116 66 177 -34 116 -156 164 -261 104z"/>
</g>
</svg>
